<svg width="52" height="53" viewBox="0 0 52 53" fill="none" xmlns="http://www.w3.org/2000/svg">
<path fill-rule="evenodd" clip-rule="evenodd" d="M26 0.422607C11.635 0.422607 0 12.3488 0 27.0732C0 38.8661 7.4425 48.8268 17.7775 52.358C19.0775 52.5912 19.565 51.7917 19.565 51.0921C19.565 50.4592 19.5325 48.3604 19.5325 46.1284C13 47.361 11.31 44.4961 10.79 42.997C10.4975 42.2308 9.23 39.8655 8.125 39.2326C7.215 38.7329 5.915 37.5003 8.0925 37.467C10.14 37.4337 11.6025 39.3992 12.09 40.1987C14.43 44.2296 18.1675 43.0969 19.6625 42.3974C19.89 40.6651 20.5725 39.4991 21.32 38.8328C15.535 38.1666 9.49 35.8679 9.49 25.6741C9.49 22.7758 10.4975 20.3773 12.155 18.5117C11.895 17.8455 10.985 15.1138 12.415 11.4493C12.415 11.4493 14.5925 10.7497 19.565 14.181C21.645 13.5814 23.855 13.2815 26.065 13.2815C28.275 13.2815 30.485 13.5814 32.565 14.181C37.5375 10.7164 39.715 11.4493 39.715 11.4493C41.145 15.1138 40.235 17.8455 39.975 18.5117C41.6325 20.3773 42.64 22.7425 42.64 25.6741C42.64 35.9013 36.5625 38.1666 30.7775 38.8328C31.72 39.6657 32.5325 41.2647 32.5325 43.7632C32.5325 47.3277 32.5 50.1927 32.5 51.0921C32.5 51.7917 32.9875 52.6245 34.2875 52.358C39.449 50.572 43.9341 47.1717 47.1115 42.6359C50.2889 38.1002 51.9986 32.6572 52 27.0732C52 12.3488 40.365 0.422607 26 0.422607Z" fill="white"/>
</svg>
