<svg width="300" height="150" viewBox="0 0 300 150" fill="none" xmlns="http://www.w3.org/2000/svg">
<path d="M62.8476 57.0314C64.1272 57.0314 64.8075 56.6163 65.4393 55.5039C70.1528 47.2521 74.996 39.0834 79.6609 30.815C83.1273 24.6884 88.262 21.9489 95.0975 21.9987C107.57 22.0983 120.042 22.0817 132.514 22.0983C147.481 22.1149 162.448 22.1315 177.415 22.0485C178.565 22.0485 180.282 21.484 180.768 20.6206C184.607 13.8299 188.203 6.90643 191.879 0.0161133C153.636 0.0161133 115.377 0.0161133 77.1179 0.0161133C75.6763 0.447795 74.2509 0.979097 72.7769 1.31116C65.9252 2.88846 60.7419 6.59097 57.2432 12.9666C51.8331 22.9119 46.1314 32.7077 40.527 42.5534C37.8706 47.2355 35.1655 51.8844 32.3957 56.7491C32.7844 56.8155 33.2704 56.9982 33.7563 56.9982C43.4588 56.9982 53.1613 56.965 62.8476 57.0314Z" fill="white"/>
<path d="M148.712 79.3299C152.292 73.0373 155.823 66.7115 159.63 59.9872C149.263 59.9872 139.366 60.0204 129.469 59.9374C127.93 59.9208 127.153 60.4853 126.408 61.7803C121.889 69.7332 117.159 77.5699 112.721 85.5893C108.963 92.38 103.407 95.0365 95.9073 95.0033C68.8893 94.8206 41.8552 94.9202 14.8372 94.8538C12.7963 94.8538 11.4843 95.4682 10.5286 97.3941C8.68203 101.113 6.62491 104.733 4.64878 108.385C3.14238 111.142 1.65218 113.914 0 116.969C1.18244 116.969 1.99233 116.969 2.80222 116.969C37.8705 116.969 72.9226 116.936 107.991 117.002C111.976 117.002 115.814 116.587 119.67 115.575C126.23 113.848 131.3 110.345 134.669 104.135C139.188 95.7836 144.015 87.5983 148.712 79.3299Z" fill="white"/>
<path d="M119.329 24.3066C111.295 24.3232 103.261 24.4228 95.2271 24.7383C90.6593 24.9043 86.6584 26.7307 84.2125 30.9147C79.2884 39.4321 74.4938 48.0325 69.4401 56.9983C78.5595 56.9983 87.2739 56.8986 95.9884 57.0647C98.5152 57.1145 99.9406 56.5334 100.848 53.9267C103.132 47.3186 107.797 44.4795 114.762 44.5791C131.251 44.8115 147.74 44.5957 164.23 44.6787C166.562 44.6953 167.907 43.8485 168.976 41.7732C171.276 37.2571 173.754 32.8407 176.216 28.4076C176.848 27.262 177.642 26.216 178.581 24.7715C177.447 24.6221 176.346 24.3398 175.244 24.3398C156.617 24.29 137.973 24.2568 119.329 24.3066Z" fill="white"/>
<path d="M74.0727 92.6621C81.5561 92.6455 89.0395 92.5459 96.5067 92.2637C101.139 92.0976 105.27 90.3709 107.748 86.1039C112.704 77.5865 117.483 68.9694 122.569 59.9705C121.484 59.9705 120.803 59.9705 120.123 59.9705C112.3 59.9705 104.46 60.1531 96.6362 59.8709C93.5425 59.7547 91.9551 60.6512 90.886 63.6398C88.6669 69.8328 84.1315 72.4395 77.6524 72.3731C61.082 72.207 44.5278 72.3731 27.9575 72.2901C25.5602 72.2735 24.151 73.0704 23.0333 75.2454C20.1015 80.9071 16.9429 86.436 13.7196 92.2969C14.6105 92.4131 15.6471 92.6455 16.7 92.6455C35.8134 92.6787 54.943 92.7119 74.0727 92.6621Z" fill="white"/>
<path d="M1.36061 149.544V146.589H27.6821C28.8322 146.589 29.6583 146.39 30.1766 145.974C30.6787 145.559 30.9379 144.895 30.9379 143.999C30.9379 143.218 30.6787 142.587 30.1442 142.139C29.6097 141.691 28.7512 141.458 27.5363 141.458H10.1722C6.7869 141.458 4.37342 140.861 2.89941 139.682C1.42541 138.503 0.696503 136.776 0.696503 134.518C0.696503 132.028 1.58738 130.201 3.36915 129.089C5.15091 127.977 7.71017 127.412 11.0307 127.412H38.4213V130.367H12.2456C11.1927 130.367 10.399 130.567 9.84829 130.949C9.29756 131.33 9.0384 131.961 9.0384 132.858C9.0384 133.638 9.31376 134.253 9.86449 134.668C10.4152 135.083 11.1765 135.299 12.1484 135.299H30.7273C33.8211 135.299 36.024 135.946 37.3198 137.225C38.6319 138.52 39.2798 140.18 39.2798 142.206C39.2798 144.779 38.4051 146.655 36.6395 147.817C34.8902 148.98 32.2337 149.561 28.6702 149.561H1.36061V149.544Z" fill="white"/>
<path d="M52.4 130.301H43.6208V127.412H52.4V130.301ZM43.6208 149.544V131.829H52.4V149.544H43.6208Z" fill="white"/>
<path d="M57.8748 149.544V131.829H102.257C104.039 131.829 105.561 131.945 106.792 132.194C108.023 132.443 109.028 132.825 109.773 133.323C110.518 133.838 111.052 134.502 111.392 135.299C111.716 136.112 111.878 137.059 111.878 138.155V149.528H103.099V137.823C103.099 136.66 102.791 135.863 102.176 135.432C101.56 135 100.443 134.784 98.8391 134.784H89.2824V149.544H80.5032V134.784H66.6703V149.544H57.8748Z" fill="white"/>
<path d="M117.062 149.545V127.396H126.57V136.993H148.178V127.396H157.686V149.545H148.178V139.948H126.57V149.545H117.062Z" fill="white"/>
<path d="M196.544 131.829V149.544H172.458C170.676 149.544 169.154 149.428 167.923 149.179C166.692 148.93 165.688 148.548 164.942 148.05C164.197 147.535 163.663 146.871 163.323 146.074C162.999 145.261 162.837 144.314 162.837 143.219V131.845H171.616V143.567C171.616 144.73 171.924 145.526 172.539 145.958C173.155 146.39 174.272 146.606 175.876 146.606H187.749V131.845H196.544V131.829Z" fill="white"/>
<path d="M201.728 149.545V127.396H210.507V131.829H223.465C226.138 131.829 228.341 131.978 230.106 132.294C231.856 132.593 233.249 133.074 234.253 133.722C235.257 134.369 235.97 135.199 236.375 136.196C236.78 137.192 236.974 138.387 236.974 139.765V141.592C236.974 142.97 236.78 144.165 236.375 145.161C235.97 146.158 235.273 146.988 234.253 147.635C233.249 148.283 231.856 148.764 230.106 149.063C228.357 149.362 226.138 149.528 223.465 149.528H201.728V149.545ZM223.19 134.784H210.523V146.589H223.19C224.874 146.589 226.041 146.257 226.672 145.593C227.304 144.929 227.628 143.75 227.628 142.04V139.35C227.628 137.624 227.304 136.428 226.672 135.764C226.041 135.116 224.874 134.784 223.19 134.784Z" fill="white"/>
<path d="M169.786 60.0705C168.117 57.1317 167.534 53.9937 168.02 50.6731C167.469 51.6859 166.919 52.6987 166.352 53.7115C165.801 54.7243 165.266 55.7537 164.651 56.9159H164.667L161.168 63.4243C152.017 80.3762 142.849 97.3446 133.697 114.313C133.211 115.21 132.887 116.206 132.433 117.318C144.128 117.318 155.532 117.318 166.967 117.318L190.94 73.4858C184.963 72.7885 174.11 67.6581 169.786 60.0705Z" fill="white"/>
<path d="M260.153 72.2399C262.972 67.1095 262.858 61.8131 260.51 57.6955C256.363 50.4399 245.057 45.5088 240.149 45.5088C231.321 45.4756 216.565 45.459 206.295 45.459L227.596 6.49135C228.729 4.33294 229.863 2.17453 230.997 0.0161133C219.221 0.0161133 207.429 0.0161133 195.653 0.0161133C195.249 0.829669 194.86 1.65983 194.439 2.45678C187.15 15.7725 179.861 29.0717 172.572 42.3874L173.317 41.9391C170.498 47.0695 169.559 54.7069 171.907 58.8245C176.054 66.0801 187.376 71.1109 192.284 71.1109C202.23 71.1109 217.197 71.0943 226.186 71.0777L200.853 117.334C212.953 117.334 224.356 117.334 235.614 117.334C243.826 102.308 252.006 87.3156 260.218 72.2897L260.153 72.2399Z" fill="white"/>
<path d="M265.013 0.0166032L259.36 10.3438C253.48 21.2853 247.551 32.2101 241.655 43.135C247.665 43.9154 258.307 48.9461 262.583 56.4342C263.927 58.7918 264.64 61.4317 264.672 64.1879L269.499 55.5044C269.548 55.4214 269.597 55.355 269.645 55.2719C277.566 40.9932 285.519 26.7477 293.424 12.469C295.691 8.35139 297.813 4.15079 300 0C288.354 0.0166032 276.691 0.0166032 265.013 0.0166032Z" fill="white"/>
</svg>
